<svg width="43" height="3" viewBox="0 0 43 3" fill="none" xmlns="http://www.w3.org/2000/svg">
<path d="M3.15798 1.5C3.15798 2.32843 2.45105 3 1.57899 3C0.706939 3 0 2.32843 0 1.5C0 0.671573 0.706939 0 1.57899 0C2.45105 0 3.15798 0.671573 3.15798 1.5Z" fill="#171718"/>
<path d="M8.07041 1.5C8.07041 2.32843 7.36347 3 6.49141 3C5.61936 3 4.91242 2.32843 4.91242 1.5C4.91242 0.671573 5.61936 0 6.49141 0C7.36347 0 8.07041 0.671573 8.07041 1.5Z" fill="#171718"/>
<path d="M12.9828 1.5C12.9828 2.32843 12.2759 3 11.4038 3C10.5318 3 9.82484 2.32843 9.82484 1.5C9.82484 0.671573 10.5318 0 11.4038 0C12.2759 0 12.9828 0.671573 12.9828 1.5Z" fill="#171718"/>
<path d="M17.8952 1.5C17.8952 2.32843 17.1883 3 16.3163 3C15.4442 3 14.7373 2.32843 14.7373 1.5C14.7373 0.671573 15.4442 0 16.3163 0C17.1883 0 17.8952 0.671573 17.8952 1.5Z" fill="#171718"/>
<path d="M22.8077 1.5C22.8077 2.32843 22.1007 3 21.2287 3C20.3566 3 19.6497 2.32843 19.6497 1.5C19.6497 0.671573 20.3566 0 21.2287 0C22.1007 0 22.8077 0.671573 22.8077 1.5Z" fill="#171718"/>
<path d="M27.7201 1.5C27.7201 2.32843 27.0131 3 26.1411 3C25.269 3 24.5621 2.32843 24.5621 1.5C24.5621 0.671573 25.269 0 26.1411 0C27.0131 0 27.7201 0.671573 27.7201 1.5Z" fill="#171718"/>
<path d="M32.6325 1.5C32.6325 2.32843 31.9256 3 31.0535 3C30.1815 3 29.4745 2.32843 29.4745 1.5C29.4745 0.671573 30.1815 0 31.0535 0C31.9256 0 32.6325 0.671573 32.6325 1.5Z" fill="#171718"/>
<path d="M38.0876 1.5C38.0876 2.32843 37.3806 3 36.5086 3C35.6365 3 34.9296 2.32843 34.9296 1.5C34.9296 0.671573 35.6365 0 36.5086 0C37.3806 0 38.0876 0.671573 38.0876 1.5Z" fill="#171718"/>
<path d="M43 1.5C43 2.32843 42.2931 3 41.421 3C40.549 3 39.842 2.32843 39.842 1.5C39.842 0.671573 40.549 0 41.421 0C42.2931 0 43 0.671573 43 1.5Z" fill="#171718"/>
</svg>
