<svg width="43" height="8" viewBox="0 0 43 8" fill="none" xmlns="http://www.w3.org/2000/svg">
<path d="M4.16129 5.88235C4.16129 7.0519 3.22975 8 2.08065 8C0.931537 8 0 7.0519 0 5.88235C0 4.71281 0.931537 3.76471 2.08065 3.76471C3.22975 3.76471 4.16129 4.71281 4.16129 5.88235Z" fill="#171718"/>
<path d="M7.39785 2.11765C7.39785 3.28719 6.46631 4.23529 5.3172 4.23529C4.1681 4.23529 3.23656 3.28719 3.23656 2.11765C3.23656 0.948103 4.1681 0 5.3172 0C6.46631 0 7.39785 0.948103 7.39785 2.11765Z" fill="#171718"/>
<path d="M10.6344 5.88235C10.6344 7.0519 9.70287 8 8.55376 8C7.40465 8 6.47312 7.0519 6.47312 5.88235C6.47312 4.71281 7.40465 3.76471 8.55376 3.76471C9.70287 3.76471 10.6344 4.71281 10.6344 5.88235Z" fill="#171718"/>
<path d="M13.871 2.11765C13.871 3.28719 12.9394 4.23529 11.7903 4.23529C10.6412 4.23529 9.70968 3.28719 9.70968 2.11765C9.70968 0.948103 10.6412 0 11.7903 0C12.9394 0 13.871 0.948103 13.871 2.11765Z" fill="#171718"/>
<path d="M17.1075 5.88235C17.1075 7.0519 16.176 8 15.0269 8C13.8778 8 12.9462 7.0519 12.9462 5.88235C12.9462 4.71281 13.8778 3.76471 15.0269 3.76471C16.176 3.76471 17.1075 4.71281 17.1075 5.88235Z" fill="#171718"/>
<path d="M20.3441 2.11765C20.3441 3.28719 19.4125 4.23529 18.2634 4.23529C17.1143 4.23529 16.1828 3.28719 16.1828 2.11765C16.1828 0.948103 17.1143 0 18.2634 0C19.4125 0 20.3441 0.948103 20.3441 2.11765Z" fill="#171718"/>
<path d="M23.5806 5.88235C23.5806 7.0519 22.6491 8 21.5 8C20.3509 8 19.4194 7.0519 19.4194 5.88235C19.4194 4.71281 20.3509 3.76471 21.5 3.76471C22.6491 3.76471 23.5806 4.71281 23.5806 5.88235Z" fill="#171718"/>
<path d="M26.8172 2.11765C26.8172 3.28719 25.8857 4.23529 24.7366 4.23529C23.5875 4.23529 22.6559 3.28719 22.6559 2.11765C22.6559 0.948103 23.5875 0 24.7366 0C25.8857 0 26.8172 0.948103 26.8172 2.11765Z" fill="#171718"/>
<path d="M30.0538 5.88235C30.0538 7.0519 29.1222 8 27.9731 8C26.824 8 25.8925 7.0519 25.8925 5.88235C25.8925 4.71281 26.824 3.76471 27.9731 3.76471C29.1222 3.76471 30.0538 4.71281 30.0538 5.88235Z" fill="#171718"/>
<path d="M33.2903 2.11765C33.2903 3.28719 32.3588 4.23529 31.2097 4.23529C30.0606 4.23529 29.129 3.28719 29.129 2.11765C29.129 0.948103 30.0606 0 31.2097 0C32.3588 0 33.2903 0.948103 33.2903 2.11765Z" fill="#171718"/>
<path d="M36.5269 5.88235C36.5269 7.0519 35.5953 8 34.4462 8C33.2971 8 32.3656 7.0519 32.3656 5.88235C32.3656 4.71281 33.2971 3.76471 34.4462 3.76471C35.5953 3.76471 36.5269 4.71281 36.5269 5.88235Z" fill="#171718"/>
<path d="M39.7634 2.11765C39.7634 3.28719 38.8319 4.23529 37.6828 4.23529C36.5337 4.23529 35.6021 3.28719 35.6021 2.11765C35.6021 0.948103 36.5337 0 37.6828 0C38.8319 0 39.7634 0.948103 39.7634 2.11765Z" fill="#171718"/>
<path d="M43 5.88235C43 7.0519 42.0685 8 40.9194 8C39.7702 8 38.8387 7.0519 38.8387 5.88235C38.8387 4.71281 39.7702 3.76471 40.9194 3.76471C42.0685 3.76471 43 4.71281 43 5.88235Z" fill="#171718"/>
</svg>
