<svg width="29" height="29" viewBox="0 0 29 29" fill="none" xmlns="http://www.w3.org/2000/svg">
<path d="M3.95455 6.15152C6.13858 6.15152 7.90909 7.92203 7.90909 10.1061C7.90909 12.2901 6.13858 14.0606 3.95455 14.0606C1.77051 14.0606 -2.38668e-07 12.2901 0 10.1061C2.38668e-07 7.92203 1.77051 6.15152 3.95455 6.15152Z" fill="#171718"/>
<path d="M3.95455 14.9394C6.13858 14.9394 7.90909 16.7099 7.90909 18.8939C7.90909 21.078 6.13858 22.8485 3.95455 22.8485C1.77051 22.8485 -2.38668e-07 21.078 0 18.8939C2.38668e-07 16.7099 1.77051 14.9394 3.95455 14.9394Z" fill="#171718"/>
<path d="M6.15152 25.0455C6.15152 22.8614 7.92203 21.0909 10.1061 21.0909C12.2901 21.0909 14.0606 22.8614 14.0606 25.0455C14.0606 27.2295 12.2901 29 10.1061 29C7.92202 29 6.15152 27.2295 6.15152 25.0455Z" fill="#171718"/>
<path d="M14.9394 25.0455C14.9394 22.8614 16.7099 21.0909 18.8939 21.0909C21.078 21.0909 22.8485 22.8614 22.8485 25.0455C22.8485 27.2295 21.078 29 18.8939 29C16.7099 29 14.9394 27.2295 14.9394 25.0455Z" fill="#171718"/>
<path d="M25.0455 22.8485C22.8614 22.8485 21.0909 21.078 21.0909 18.8939C21.0909 16.7099 22.8614 14.9394 25.0455 14.9394C27.2295 14.9394 29 16.7099 29 18.8939C29 21.078 27.2295 22.8485 25.0455 22.8485Z" fill="#171718"/>
<path d="M25.0455 14.0606C22.8614 14.0606 21.0909 12.2901 21.0909 10.1061C21.0909 7.92203 22.8614 6.15152 25.0455 6.15152C27.2295 6.15152 29 7.92203 29 10.1061C29 12.2901 27.2295 14.0606 25.0455 14.0606Z" fill="#171718"/>
<path d="M22.8485 3.95455C22.8485 6.13858 21.078 7.90909 18.8939 7.90909C16.7099 7.90909 14.9394 6.13858 14.9394 3.95455C14.9394 1.77051 16.7099 0 18.8939 0C21.078 0 22.8485 1.77051 22.8485 3.95455Z" fill="#171718"/>
<path d="M14.0606 3.95455C14.0606 6.13858 12.2901 7.90909 10.1061 7.90909C7.92202 7.90909 6.15151 6.13858 6.15151 3.95455C6.15151 1.77051 7.92202 0 10.1061 0C12.2901 0 14.0606 1.77051 14.0606 3.95455Z" fill="#171718"/>
</svg>
