<svg width="31" height="29" viewBox="0 0 31 29" fill="none" xmlns="http://www.w3.org/2000/svg">
<path d="M20 14.027C20 16.5123 17.9853 18.527 15.5 18.527C13.0147 18.527 11 16.5123 11 14.027C11 11.5418 13.0147 9.52704 15.5 9.52704C17.9853 9.52704 20 11.5418 20 14.027Z" fill="#171718"/>
<path d="M31 14.027C31 16.5123 28.9853 18.527 26.5 18.527C24.0147 18.527 22 16.5123 22 14.027C22 11.5418 24.0147 9.52704 26.5 9.52704C28.9853 9.52704 31 11.5418 31 14.027Z" fill="#171718"/>
<path d="M7.74981 27.4505C5.5975 26.2079 4.86006 23.4557 6.1027 21.3034C7.34534 19.1511 10.0975 18.4137 12.2498 19.6563C14.4021 20.899 15.1396 23.6511 13.8969 25.8034C12.6543 27.9557 9.90213 28.6932 7.74981 27.4505Z" fill="#171718"/>
<path d="M18.7498 8.39793C16.5975 7.15529 15.8601 4.40313 17.1027 2.25081C18.3453 0.098495 21.0975 -0.638943 23.2498 0.603698C25.4021 1.84634 26.1396 4.5985 24.8969 6.75081C23.6543 8.90313 20.9021 9.64057 18.7498 8.39793Z" fill="#171718"/>
<path d="M23.25 27.4504C21.0977 28.6931 18.3455 27.9556 17.1029 25.8033C15.8602 23.651 16.5977 20.8988 18.75 19.6562C20.9023 18.4135 23.6545 19.151 24.8971 21.3033C26.1398 23.4556 25.4023 26.2078 23.25 27.4504Z" fill="#171718"/>
<path d="M9 14.027C9 16.5123 6.98528 18.527 4.5 18.527C2.01472 18.527 0 16.5123 0 14.027C0 11.5418 2.01472 9.52704 4.5 9.52704C6.98528 9.52704 9 11.5418 9 14.027Z" fill="#171718"/>
<path d="M12.25 8.39787C10.0977 9.64051 7.34552 8.90307 6.10288 6.75075C4.86024 4.59843 5.59768 1.84628 7.75 0.603637C9.90231 -0.639004 12.6545 0.0984349 13.8971 2.25075C15.1398 4.40307 14.4023 7.15523 12.25 8.39787Z" fill="#171718"/>
</svg>
